<?xml version="1.0" encoding="utf-8"?>
<!-- Generator: Adobe Illustrator 25.4.1, SVG Export Plug-In . SVG Version: 6.00 Build 0)  -->
<svg version="1.1" id="Layer_1" xmlns="http://www.w3.org/2000/svg" xmlns:xlink="http://www.w3.org/1999/xlink" x="0px" y="0px"
	 viewBox="0 0 35 35.6" style="enable-background:new 0 0 35 35.6;" xml:space="preserve">
<style type="text/css">
	.st0{fill:#D7373F;}
</style>
<path class="st0" d="M34.2,19.2l-7.7,7.8c-0.3,0.3-1,0.3-1.3,0l0,0l0,0l-0.9-0.9c-0.3-0.3-0.3-1,0-1.3l6.5-6.6l-6.5-6.6
	c-0.3-0.3-0.3-1,0-1.3l0.9-0.9c0.3-0.3,1-0.3,1.3,0l0,0l0,0l7.7,7.8C34.7,17.8,34.7,18.7,34.2,19.2z"/>
<path class="st0" d="M1,17.2l7.7-7.8c0.3-0.3,1-0.3,1.3,0l0,0l0,0l0.9,0.9c0.3,0.3,0.3,1,0,1.3l-6.5,6.6l6.5,6.6
	c0.3,0.3,0.3,1,0,1.3l-0.9,0.9c-0.3,0.3-1,0.3-1.3,0l0,0l0,0L1,19.2C0.4,18.7,0.4,17.8,1,17.2z"/>
<path class="st0" d="M15.4,29.1h-1.1c-0.6,0-1-0.4-1-1c0-0.1,0-0.2,0-0.2l5.8-21.5C19.3,6,19.5,5.7,20,5.7h1.1c0.6,0,1,0.4,1,1
	c0,0.1,0,0.1,0,0.2l-5.7,21.5C16.2,28.8,15.7,29.1,15.4,29.1z"/>
</svg>
